<?xml version="1.0" standalone="no"?>
<!DOCTYPE svg PUBLIC "-//W3C//DTD SVG 20010904//EN"
 "http://www.w3.org/TR/2001/REC-SVG-20010904/DTD/svg10.dtd">
<svg version="1.0" xmlns="http://www.w3.org/2000/svg"
 width="1472.000000pt" height="832.000000pt" viewBox="0 0 1472.000000 832.000000"
 preserveAspectRatio="xMidYMid meet">

<g transform="translate(0.000000,832.000000) scale(0.100000,-0.100000)"
fill="#000000" stroke="none">
<path d="M3947 5399 c7 -7 15 -10 18 -7 3 3 -2 9 -12 12 -14 6 -15 5 -6 -5z"/>
<path d="M1469 5123 c-84 -89 -98 -122 -84 -205 10 -56 65 -111 128 -127 28
-6 133 -11 264 -11 214 0 218 0 238 23 37 43 68 57 120 57 55 0 106 -25 125
-59 10 -20 19 -21 268 -21 l257 0 -6 192 c-4 106 -7 203 -8 216 l-1 22 -467 0
c-498 -1 -624 -7 -715 -39 -56 -19 -70 -17 -47 6 6 6 10 15 8 20 -2 4 -38 -29
-80 -74z"/>
<path d="M5725 4891 c-38 -16 -58 -50 -63 -105 -4 -44 0 -60 17 -85 62 -86
211 -52 226 53 15 99 -86 175 -180 137z"/>
<path d="M6824 4890 c-62 -25 -88 -137 -43 -193 43 -56 143 -60 193 -8 93 97
-22 253 -150 201z"/>
<path d="M7950 4380 l0 -511 103 3 102 3 3 508 2 507 -105 0 -105 0 0 -510z"/>
<path d="M4670 4686 c-18 -66 -44 -102 -94 -131 -44 -25 -46 -29 -46 -71 l0
-44 44 0 44 0 4 -217 c3 -209 4 -220 28 -267 35 -71 79 -91 190 -90 47 0 103
7 125 15 l40 14 3 84 c3 83 3 84 -20 77 -73 -23 -111 -28 -134 -17 l-24 11 0
195 0 195 90 0 90 0 0 70 0 69 -87 3 -88 3 -3 73 -3 72 -73 0 -73 0 -13 -44z"/>
<path d="M13137 4703 c-3 -5 -10 -34 -17 -65 -12 -62 -15 -65 -75 -89 -26 -11
-40 -23 -40 -35 0 -16 7 -18 53 -15 l52 2 0 -248 c0 -238 1 -251 23 -293 32
-64 65 -84 145 -88 84 -5 122 9 122 42 0 23 -2 24 -79 22 -134 -2 -141 14
-141 336 l0 227 103 3 c101 3 102 3 102 28 0 25 -1 25 -102 28 l-103 3 0 74
c0 68 -2 75 -19 75 -11 0 -22 -3 -24 -7z"/>
<path d="M1548 4656 c-80 -17 -136 -60 -173 -132 l-30 -58 -2 -545 c-3 -630 3
-747 41 -824 34 -70 84 -127 148 -170 102 -67 100 -67 710 -67 359 0 548 3
548 10 0 6 -5 10 -11 10 -6 0 -27 12 -47 28 -48 35 -65 52 -55 52 10 0 35 52
28 58 -3 3 -5 0 -5 -6 0 -7 -5 -12 -10 -12 -8 0 6 32 28 60 1 2 7 -2 13 -10 8
-13 10 -13 18 0 6 8 14 11 18 6 4 -5 2 -11 -4 -13 -9 -3 -9 -10 3 -28 8 -12
16 -31 18 -41 3 -11 7 -27 11 -36 4 -11 3 -18 -4 -18 -15 0 -14 -19 2 -35 18
-17 253 -33 243 -16 -4 6 -15 11 -24 11 -69 1 -209 123 -230 200 -14 51 -14
40 -6 293 l6 187 -245 0 -246 0 -13 -27 c-47 -95 -190 -94 -245 3 -38 66 -28
132 29 191 l31 32 -7 408 -7 407 -40 37 c-21 20 -39 41 -39 47 0 17 -375 15
-452 -2z m1199 -1578 c-3 -8 -6 -5 -6 6 -1 11 2 17 5 13 3 -3 4 -12 1 -19z
m-67 -98 c0 -5 -4 -10 -10 -10 -5 0 -10 5 -10 10 0 6 5 10 10 10 6 0 10 -4 10
-10z"/>
<path d="M2269 4648 c-6 -13 -26 -37 -45 -55 l-34 -32 0 -398 c0 -394 2 -423
32 -423 6 0 216 176 238 200 3 3 37 32 75 65 39 32 109 95 158 138 l87 80 -2
221 -3 221 -247 3 -247 2 -12 -22z"/>
<path d="M5435 4571 c-22 -10 -55 -35 -74 -56 -37 -42 -45 -39 -55 27 l-6 39
-78 -3 -77 -3 0 -350 0 -350 50 -3 c28 -2 74 -1 103 3 l52 6 0 213 c0 205 1
214 23 247 31 47 79 69 153 69 l60 0 11 82 c9 62 8 85 0 90 -23 14 -122 8
-162 -11z"/>
<path d="M7305 4572 c-33 -10 -70 -24 -82 -30 -22 -12 -23 -14 -7 -50 9 -20
20 -49 26 -64 12 -33 7 -33 86 -8 35 11 92 20 126 20 75 0 93 -14 102 -82 l6
-45 -108 -6 c-201 -10 -290 -58 -313 -167 -23 -110 21 -220 102 -256 30 -14
64 -19 122 -18 89 1 133 15 186 62 l35 31 12 -45 12 -44 70 0 70 0 0 269 c0
174 -4 280 -11 302 -18 52 -56 97 -102 121 -58 31 -243 36 -332 10z m248 -434
c-6 -62 -27 -96 -74 -120 -76 -39 -139 -12 -139 61 0 74 50 108 162 110 l56 1
-5 -52z"/>
<path d="M5686 4564 c-3 -9 -3 -169 0 -356 l7 -339 96 3 96 3 3 353 2 352 -99
0 c-82 0 -100 -3 -105 -16z"/>
<path d="M5980 4570 c0 -6 49 -142 109 -303 59 -160 114 -310 121 -332 7 -22
17 -46 23 -52 10 -14 184 -18 203 -5 5 4 55 129 109 277 54 149 110 302 125
342 15 40 25 75 22 78 -3 3 -52 5 -108 5 l-103 0 -24 -77 c-13 -43 -46 -156
-73 -251 -35 -125 -51 -166 -55 -150 -4 13 -19 68 -33 123 -15 55 -45 157 -67
228 l-40 127 -104 0 c-65 0 -105 -4 -105 -10z"/>
<path d="M6785 4568 c-3 -7 -4 -166 -3 -353 l3 -340 100 0 100 0 0 350 0 350
-98 3 c-72 2 -99 -1 -102 -10z"/>
<path d="M8565 4563 c-73 -16 -125 -35 -125 -46 0 -7 7 -22 15 -34 l15 -21 52
20 c34 13 78 20 123 21 123 1 168 -43 169 -163 l1 -65 -120 -7 c-66 -4 -142
-14 -168 -22 -105 -31 -157 -94 -157 -187 0 -122 76 -189 215 -189 92 0 163
21 200 60 16 16 32 30 36 30 4 0 10 -18 14 -40 6 -35 10 -40 33 -40 l27 0 -3
257 c-1 142 -8 276 -13 298 -14 50 -73 110 -124 124 -39 11 -150 13 -190 4z
m255 -410 c0 -154 -71 -223 -226 -223 -70 0 -115 23 -140 71 -32 63 -2 138 71
177 47 24 82 30 193 31 l102 1 0 -57z"/>
<path d="M9325 4554 c-22 -8 -57 -28 -77 -45 l-38 -30 -6 41 c-6 36 -9 40 -35
40 l-29 0 2 -492 3 -493 33 -3 32 -3 0 195 c0 108 2 196 4 196 2 0 19 -15 39
-33 46 -44 108 -61 200 -55 118 8 182 52 234 163 26 56 28 68 28 190 0 127 -1
132 -33 197 -51 104 -127 149 -251 147 -36 0 -84 -7 -106 -15z m168 -55 c47
-13 100 -58 122 -105 42 -89 40 -267 -5 -354 -46 -91 -178 -136 -277 -95 -48
20 -70 41 -96 90 -19 35 -21 57 -22 180 0 131 2 144 25 190 44 85 148 124 253
94z"/>
<path d="M10130 4555 c-25 -8 -59 -28 -77 -45 -18 -16 -34 -30 -37 -30 -3 0
-6 17 -8 38 -3 34 -6 37 -33 37 l-30 0 -3 -492 -2 -493 35 0 35 0 0 196 0 196
34 -30 c55 -48 112 -65 209 -61 72 4 90 8 133 34 56 35 84 73 115 153 28 77
31 241 4 325 -24 77 -88 149 -152 171 -57 19 -162 20 -223 1z m224 -83 c23
-15 50 -48 65 -77 24 -46 26 -60 26 -175 0 -117 -2 -128 -28 -177 -17 -34 -42
-63 -69 -80 -37 -25 -50 -28 -128 -28 -80 0 -89 2 -124 29 -65 50 -78 95 -74
260 3 132 5 144 30 187 44 75 102 102 203 94 44 -4 70 -12 99 -33z"/>
<path d="M10814 4556 c-89 -28 -124 -73 -124 -160 0 -98 47 -145 190 -191 81
-26 145 -61 169 -91 44 -56 15 -141 -57 -166 -60 -20 -208 -15 -265 11 -27 11
-51 21 -53 21 -2 0 -4 -16 -4 -36 0 -31 4 -37 38 -51 22 -9 78 -18 138 -21
199 -9 297 51 297 183 0 97 -47 146 -184 195 -177 64 -199 81 -199 155 0 21 9
44 24 62 23 26 30 28 114 31 63 3 107 -1 147 -13 32 -9 58 -15 59 -13 1 2 7
15 14 30 14 34 4 41 -89 57 -84 14 -163 13 -215 -3z"/>
<path d="M11815 4561 c-43 -11 -75 -29 -112 -64 l-33 -31 0 41 c0 38 -2 41
-30 45 -17 3 -33 1 -36 -4 -3 -5 -2 -160 2 -344 l7 -335 31 3 31 3 5 245 c6
255 10 282 53 328 40 43 77 56 157 56 88 0 131 -18 157 -67 16 -28 18 -65 21
-277 1 -135 5 -255 7 -268 5 -19 11 -23 38 -20 l32 3 0 260 c0 227 -2 266 -18
307 -22 56 -72 103 -124 117 -42 12 -142 13 -188 2z"/>
<path d="M12521 4552 c-129 -49 -198 -210 -171 -401 21 -146 87 -235 199 -268
61 -17 223 -14 294 7 33 10 37 14 37 45 0 19 -3 35 -7 35 -4 0 -47 -10 -96
-22 -78 -19 -97 -20 -154 -11 -119 21 -181 89 -198 219 l-6 51 47 7 c26 3 136
6 245 6 l199 0 0 23 c0 54 -23 153 -45 197 -27 54 -75 95 -132 116 -52 18
-159 16 -212 -4z m175 -57 c28 -8 60 -25 72 -37 30 -32 52 -90 52 -136 l0 -40
-153 -7 c-84 -4 -174 -4 -199 0 -46 7 -47 8 -42 39 10 52 52 130 82 153 56 42
114 50 188 28z"/>
<path d="M2733 4037 c-32 -29 -105 -93 -163 -142 -58 -48 -135 -113 -172 -144
-61 -51 -84 -78 -75 -87 2 -2 106 -1 230 3 l227 6 0 197 c0 139 3 199 12 208
7 7 9 12 6 12 -4 0 -33 -24 -65 -53z"/>
<path d="M11313 4000 c-45 -19 -55 -72 -22 -114 42 -54 139 -24 139 43 0 56
-62 94 -117 71z"/>
<path d="M8529 3499 c-8 -16 -8 -24 1 -33 14 -14 42 18 33 40 -7 20 -21 17
-34 -7z"/>
<path d="M5051 3467 c-13 -16 -81 -196 -81 -214 0 -36 -19 -2 -55 98 -36 101
-55 132 -72 116 -3 -4 16 -66 43 -139 45 -121 51 -133 74 -133 22 0 29 11 68
115 24 63 46 127 49 143 6 29 -7 36 -26 14z"/>
<path d="M5843 3464 c-44 -22 -60 -42 -74 -94 -30 -117 59 -209 175 -179 67
17 99 56 104 126 3 49 0 64 -20 93 -41 60 -125 85 -185 54z m132 -46 c50 -44
49 -137 -1 -177 -29 -23 -92 -28 -125 -11 -25 14 -49 62 -49 100 0 37 23 85
47 99 33 19 100 13 128 -11z"/>
<path d="M8429 3443 c-7 -21 -13 -85 -13 -143 -1 -87 2 -105 14 -105 12 0 16
21 20 107 5 90 10 113 28 138 17 23 19 30 8 30 -8 0 -21 3 -29 6 -11 4 -19 -6
-28 -33z"/>
<path d="M11048 3473 c-54 -6 -62 -26 -55 -147 3 -56 8 -109 12 -119 12 -28
30 -14 33 25 3 31 7 37 34 42 63 12 76 8 108 -39 29 -43 60 -60 60 -32 0 6
-13 29 -29 50 l-29 37 34 34 c58 58 39 128 -41 146 -40 10 -59 10 -127 3z
m146 -49 c37 -36 1 -85 -79 -110 -73 -21 -85 -19 -85 16 0 27 3 30 30 30 17 0
30 5 30 11 0 5 -13 15 -30 20 -19 7 -30 18 -30 30 0 17 8 19 74 19 54 0 79 -4
90 -16z"/>
<path d="M11340 3472 c0 -12 30 -98 69 -199 28 -71 36 -83 56 -83 16 0 26 8
33 28 6 15 29 74 51 132 23 58 41 108 41 112 0 5 -8 8 -18 8 -13 0 -28 -28
-62 -115 -24 -63 -46 -112 -49 -109 -3 2 -20 46 -37 95 -18 50 -40 101 -49
115 -15 23 -35 32 -35 16z"/>
<path d="M11955 3469 c-17 -4 -44 -22 -60 -39 -23 -24 -30 -41 -33 -89 -5 -72
19 -121 71 -142 62 -26 157 -7 157 31 0 19 -1 20 -30 5 -48 -25 -97 -19 -131
14 -25 25 -29 37 -29 81 0 44 4 56 29 81 36 35 79 38 127 8 l34 -21 0 22 c0
15 -12 26 -42 40 -48 22 -50 22 -93 9z"/>
<path d="M4657 3443 c-24 -46 -97 -228 -97 -241 0 -28 29 -9 44 28 16 40 16
40 69 40 53 0 54 -1 72 -40 16 -35 45 -55 45 -31 0 20 -99 266 -109 269 -5 2
-16 -9 -24 -25z m52 -130 c1 -8 -12 -13 -34 -13 -19 0 -35 1 -35 3 0 2 8 26
17 52 l16 50 18 -40 c10 -22 18 -46 18 -52z"/>
<path d="M5251 3456 c-8 -9 -11 -55 -9 -137 3 -102 6 -124 18 -124 10 0 17 13
20 40 5 39 6 40 45 43 37 3 45 -1 83 -43 24 -25 47 -45 53 -45 16 0 10 22 -16
56 l-25 33 25 37 c24 36 32 88 17 110 -4 5 -18 18 -32 27 -32 22 -162 24 -179
3z m162 -30 c20 -16 22 -65 3 -91 -10 -13 -30 -20 -73 -23 -56 -4 -60 -3 -66
19 -9 32 -9 94 0 102 12 12 118 7 136 -7z"/>
<path d="M5600 3329 c0 -128 2 -140 18 -137 10 2 17 12 16 26 0 12 -1 74 -2
137 -2 95 -5 115 -17 115 -13 0 -15 -22 -15 -141z"/>
<path d="M6167 3463 c-11 -10 -8 -177 4 -211 26 -75 147 -90 199 -25 17 22 20
40 20 134 0 85 -3 109 -13 109 -11 0 -15 -27 -20 -106 -7 -123 -18 -144 -77
-144 -67 0 -75 14 -78 139 -3 80 -7 111 -16 111 -7 0 -16 -3 -19 -7z"/>
<path d="M6532 3447 c-27 -28 -29 -78 -4 -99 9 -8 43 -27 75 -41 58 -26 71
-49 45 -75 -18 -18 -88 -15 -110 5 -14 13 -21 14 -30 5 -17 -17 9 -41 57 -52
52 -12 106 7 123 42 20 43 -5 81 -74 109 -62 26 -80 48 -64 79 13 25 81 28
100 5 16 -20 30 -19 30 1 0 27 -31 43 -81 44 -35 0 -51 -5 -67 -23z"/>
<path d="M7040 3330 l0 -140 68 0 c83 0 130 21 154 70 24 46 23 92 -3 141 -25
51 -66 69 -154 69 l-65 0 0 -140z m151 100 c27 -15 49 -63 49 -108 0 -30 -7
-48 -29 -71 -25 -27 -36 -31 -79 -31 -47 0 -50 1 -56 31 -3 17 -6 67 -6 110
l0 79 51 0 c28 0 59 -5 70 -10z"/>
<path d="M7382 3333 c3 -115 6 -138 18 -138 12 0 15 23 18 138 2 132 2 137
-18 137 -20 0 -20 -5 -18 -137z"/>
<path d="M7575 3437 c-98 -98 -17 -281 110 -245 16 4 38 18 47 31 l18 22 0
-32 c0 -23 5 -33 15 -33 12 0 15 16 15 85 0 69 -3 85 -15 85 -11 0 -15 -11
-15 -39 0 -34 -5 -44 -33 -65 -73 -56 -147 -13 -147 86 0 93 79 136 159 87 22
-13 37 -17 43 -11 26 26 -45 62 -118 62 -39 0 -51 -5 -79 -33z"/>
<path d="M7940 3330 c0 -118 2 -140 15 -140 13 0 15 22 15 140 0 118 -2 140
-15 140 -13 0 -15 -22 -15 -140z"/>
<path d="M8070 3455 c0 -11 12 -15 50 -15 l50 0 0 -125 c0 -104 2 -125 15
-125 13 0 15 21 15 125 l0 125 45 0 c33 0 45 4 45 15 0 12 -19 15 -110 15 -91
0 -110 -3 -110 -15z"/>
<path d="M8920 3330 c0 -118 2 -140 15 -140 13 0 15 22 15 140 0 118 -2 140
-15 140 -13 0 -15 -22 -15 -140z"/>
<path d="M9112 3333 l3 -138 76 -3 c62 -2 78 0 82 13 5 12 -4 15 -58 15 l-65
0 0 73 c0 109 -10 177 -27 177 -11 0 -13 -25 -11 -137z"/>
<path d="M9521 3453 c-10 -20 -101 -252 -101 -259 0 -2 8 -4 18 -4 13 0 24 13
35 40 15 40 16 40 70 40 54 0 54 0 70 -40 9 -23 22 -40 31 -40 23 0 21 6 -31
137 -59 150 -71 165 -92 126z m38 -90 c8 -21 16 -44 18 -50 4 -9 -7 -13 -37
-13 -29 0 -40 4 -36 13 2 6 10 29 17 50 7 20 15 37 19 37 3 0 12 -17 19 -37z"/>
<path d="M9798 3438 c-2 -45 -2 -100 0 -180 l2 -68 85 0 c68 0 85 3 85 15 0
11 -16 15 -67 17 l-68 3 -3 123 c-2 99 -5 122 -17 122 -10 0 -16 -11 -17 -32z"/>
<path d="M10353 3455 c-27 -19 -39 -70 -22 -91 7 -9 38 -27 68 -40 73 -33 88
-56 55 -88 -20 -20 -84 -21 -110 -1 -24 18 -34 19 -34 2 0 -41 87 -67 144 -43
87 36 70 123 -30 156 -55 19 -74 41 -58 68 16 25 62 27 95 3 16 -12 31 -21 34
-21 13 0 3 32 -15 50 -24 24 -95 27 -127 5z"/>
<path d="M10672 3462 c-7 -5 -10 -16 -6 -25 4 -11 1 -17 -8 -17 -20 0 -22 -85
-2 -101 9 -7 14 -32 14 -70 l0 -59 46 0 c27 0 43 4 39 10 -3 6 -15 10 -26 10
-16 0 -19 7 -19 53 0 41 -4 55 -20 65 -31 19 -24 32 18 33 30 0 33 2 16 9 -31
12 -39 41 -17 58 20 15 118 9 140 -9 7 -6 15 -27 19 -46 5 -27 2 -37 -12 -48
-17 -13 -17 -14 -2 -15 11 0 21 -17 33 -55 20 -70 39 -73 33 -5 -5 46 -3 50
16 50 17 0 18 2 6 9 -8 6 -17 8 -20 6 -4 -2 -15 24 -24 58 -25 91 -34 97 -130
97 -45 0 -87 -4 -94 -8z"/>
<path d="M11700 3330 c0 -113 3 -140 14 -140 11 0 15 22 18 97 4 132 -1 183
-18 183 -11 0 -14 -27 -14 -140z"/>
<path d="M12220 3330 l0 -140 85 0 c70 0 83 3 79 15 -4 10 -25 15 -67 17 l-62
3 0 45 0 45 58 3 c77 4 72 26 -6 30 l-57 3 0 44 0 44 67 3 c42 2 68 8 71 16 3
9 -18 12 -82 12 l-86 0 0 -140z"/>
<path d="M12545 3445 c-46 -45 -22 -100 55 -126 63 -21 87 -58 58 -87 -17 -17
-90 -15 -114 3 -22 17 -44 19 -44 5 0 -20 44 -48 86 -55 119 -17 173 97 69
147 -22 11 -51 25 -65 31 -36 18 -34 58 3 71 22 8 35 7 59 -7 36 -21 48 -21
48 -2 0 20 -52 45 -95 45 -25 0 -43 -8 -60 -25z"/>
<path d="M8655 3445 c-3 -8 -7 -21 -9 -29 -3 -8 -28 -23 -55 -33 -58 -20 -68
-38 -17 -29 33 6 34 5 40 -31 11 -61 16 -73 33 -73 13 0 15 9 10 56 -6 55 -1
84 13 84 4 0 24 -43 46 -96 35 -88 55 -116 71 -101 3 4 -18 65 -47 137 -50
123 -73 154 -85 115z"/>
<path d="M5117 3363 c-11 -18 16 -163 30 -163 16 0 16 6 2 90 -10 64 -22 90
-32 73z"/>
<path d="M2710 3030 c0 -5 7 -10 16 -10 8 0 12 5 9 10 -3 6 -10 10 -16 10 -5
0 -9 -4 -9 -10z"/>
<path d="M2745 2930 c-3 -5 1 -10 10 -10 9 0 13 5 10 10 -3 6 -8 10 -10 10 -2
0 -7 -4 -10 -10z"/>
</g>
</svg>
